<svg xmlns="http://www.w3.org/2000/svg" viewBox="0 0 24 24"><path d="M19 23c-1.378 0-2.5-1.122-2.5-2.5S17.622 18 19 18s2.5 1.122 2.5 2.5S20.378 23 19 23zm0-4c-.827 0-1.5.673-1.5 1.5S18.173 22 19 22s1.5-.673 1.5-1.5S19.827 19 19 19zM9 23c-1.378 0-2.5-1.122-2.5-2.5S7.622 18 9 18s2.5 1.122 2.5 2.5S10.378 23 9 23zm0-4c-.827 0-1.5.673-1.5 1.5S8.173 22 9 22s1.5-.673 1.5-1.5S9.827 19 9 19zm12-2H9.459a3.51 3.51 0 0 1-3.432-2.813L3.59 2H1a.5.5 0 0 1 0-1h3a.5.5 0 0 1 .49.402L7.008 13.99A2.507 2.507 0 0 0 9.459 16H21a.5.5 0 0 1 0 1z"/><path d="M6.999 15a.5.5 0 0 1-.065-.996l14.618-1.949L22.434 5H5a.5.5 0 0 1 0-1h18a.501.501 0 0 1 .496.562l-1 8a.5.5 0 0 1-.43.434l-15 2a.512.512 0 0 1-.067.004z"/><path d="M8.999 13a.5.5 0 0 1-.493-.418l-1-6a.5.5 0 0 1 .987-.164l1 6a.5.5 0 0 1-.494.582zm2.5-.5a.5.5 0 0 1-.498-.455l-.5-5.5a.5.5 0 0 1 .453-.543.494.494 0 0 1 .543.453l.5 5.5a.5.5 0 0 1-.453.543c-.014.002-.029.002-.045.002zM14 12a.5.5 0 0 1-.5-.5v-5a.5.5 0 0 1 1 0v5a.5.5 0 0 1-.5.5zm2.5-.5a.501.501 0 0 1-.498-.555l.5-4.5a.51.51 0 0 1 .552-.442.501.501 0 0 1 .442.552l-.5 4.5a.498.498 0 0 1-.496.445zM19 11a.5.5 0 0 1-.486-.621l1-4a.5.5 0 1 1 .97.242l-1 4A.497.497 0 0 1 19 11z"/></svg>