<svg xmlns="http://www.w3.org/2000/svg" viewBox="0 0 24 24"><path d="M7 3C4.243 3 2 5.242 2 8a.5.5 0 0 0 1 0c0-2.206 1.794-4 4-4a.5.5 0 0 0 0-1zm10-2c-1.894 0-3.686.76-5 2.103A6.979 6.979 0 0 0 7 1C3.14 1 0 4.14 0 8c0 1.742.703 3.447 2.032 4.93 2.287 2.55 9.541 9.849 9.614 9.922.093.095.221.148.354.148s.261-.053.355-.146c.073-.073 7.327-7.372 9.614-9.923C23.297 11.448 24 9.744 24 8c0-3.859-3.14-7-7-7zm4.224 11.262C19.245 14.47 13.489 20.289 12 21.79c-1.49-1.501-7.245-7.32-9.224-9.527C1.966 11.357 1 9.885 1 8c0-3.31 2.691-6 6-6 1.788 0 3.47.79 4.615 2.168.19.229.58.229.769 0A5.984 5.984 0 0 1 17 2c3.309 0 6 2.691 6 6 0 1.885-.966 3.357-1.776 4.262z"/></svg>