<svg xmlns="http://www.w3.org/2000/svg" viewBox="0 0 24 24"><path d="M12 15.507c-.55 0-1.101-.164-1.581-.493L2.218 9.403a.5.5 0 0 1 .564-.825l8.201 5.611a1.79 1.79 0 0 0 2.033 0l8.201-5.611a.5.5 0 1 1 .565.825l-8.201 5.611a2.792 2.792 0 0 1-1.581.493z"/><path d="M21.5 23.49h-19a2.503 2.503 0 0 1-2.5-2.5V9.078a2.49 2.49 0 0 1 1.141-2.099L10.373.998c.948-.649 2.295-.656 3.264.007l9.222 5.975A2.487 2.487 0 0 1 24 9.078V20.99c0 1.379-1.122 2.5-2.5 2.5zM12 1.498c-.384 0-.755.115-1.073.332L1.685 7.819A1.493 1.493 0 0 0 1 9.078V20.99c0 .827.673 1.5 1.5 1.5h19c.827 0 1.5-.673 1.5-1.5V9.078c0-.511-.256-.981-.685-1.259l-9.232-5.982A1.905 1.905 0 0 0 12 1.498z"/><path d="M2.5 21.49a.5.5 0 0 1-.321-.885l6-5a.5.5 0 0 1 .641.769l-6 5a.497.497 0 0 1-.32.116zm19 0a.499.499 0 0 1-.32-.116l-6-5a.5.5 0 0 1 .641-.769l6 5a.5.5 0 0 1-.321.885z"/></svg>