<svg xmlns="http://www.w3.org/2000/svg" viewBox="0 0 24 24"><path d="M17 10.5v-3C17 5.019 14.981 3 12.5 3h-8A4.505 4.505 0 0 0 0 7.5v3C0 12.981 2.019 15 4.5 15H5v2.5a.5.5 0 0 0 .853.354L8.707 15H12.5c2.481 0 4.5-2.019 4.5-4.5zM8.5 14a.5.5 0 0 0-.354.147L6 16.293V14.5a.5.5 0 0 0-.5-.5h-1C2.57 14 1 12.43 1 10.5v-3C1 5.57 2.57 4 4.5 4h8C14.43 4 16 5.57 16 7.5v3c0 1.93-1.57 3.5-3.5 3.5h-4zm11-8h-.951a.5.5 0 0 0 0 1h.951c1.93 0 3.5 1.57 3.5 3.5v3c0 1.93-1.57 3.5-3.5 3.5h-1a.5.5 0 0 0-.5.5v1.793l-2.146-2.147A.504.504 0 0 0 15.5 17h-4a3.45 3.45 0 0 1-2.006-.645.5.5 0 0 0-.578.815c.765.543 1.658.83 2.584.83h3.793l2.853 2.854a.504.504 0 0 0 .545.108A.5.5 0 0 0 19 20.5V18h.5c2.481 0 4.5-2.019 4.5-4.5v-3C24 8.019 21.981 6 19.5 6z"/></svg>